<?xml version="1.0" encoding="utf-8"?>
<!-- Generator: Adobe Illustrator 19.0.0, SVG Export Plug-In . SVG Version: 6.00 Build 0)  -->
<svg version="1.1" id="Layer_1" xmlns="http://www.w3.org/2000/svg" xmlns:xlink="http://www.w3.org/1999/xlink" x="0px" y="0px"
	 viewBox="94 -0.4 800 513.8" style="enable-background:new 94 -0.4 800 513.8;" xml:space="preserve">
<style type="text/css">
	.st0{fill:#4D4D4D;}
	.st1{fill:#FFFFFF;}
	.st2{fill:#F47216;}
</style>
<g>
	<path class="st0" d="M150.4-0.4C119.3-0.4,94,24.9,94,56v401c0,31.2,25.3,56.4,56.4,56.4h687.2c31.1,0,56.4-25.3,56.4-56.4V56
		c0-31.2-25.3-56.4-56.4-56.4H150.4z"/>
	<path class="st1" d="M429.5,165.6c9.1,0,16.7,1.8,25.9,6.2v23.3c-8.8-8.1-16.4-11.4-26.4-11.4c-19.8,0-35.3,15.4-35.3,34.9
		c0,20.6,15.1,35.1,36.3,35.1c9.6,0,17-3.2,25.4-11.1V266c-9.6,4.2-17.3,5.9-26.4,5.9c-32.1,0-57-23.2-57-53.1
		C372,189.3,397.6,165.6,429.5,165.6L429.5,165.6z M329.9,166.3c11.8,0,22.7,3.8,31.7,11.3l-11,13.6c-5.5-5.8-10.7-8.2-17-8.2
		c-9.1,0-15.7,4.9-15.7,11.3c0,5.5,3.7,8.4,16.4,12.8c24,8.3,31.1,15.6,31.1,31.7c0,19.7-15.4,33.4-37.3,33.4
		c-16,0-27.7-5.9-37.4-19.4l13.6-12.3c4.9,8.8,12.9,13.6,23,13.6c9.4,0,16.4-6.1,16.4-14.3c0-4.3-2.1-7.9-6.3-10.5
		c-2.1-1.2-6.3-3.1-14.6-5.8c-19.8-6.7-26.6-13.9-26.6-27.9C296.2,178.8,310.8,166.3,329.9,166.3z M570.7,168h23l28.8,68.3
		l29.2-68.3h22.8l-46.7,104.3h-11.3L570.7,168L570.7,168z M163.1,168.2h30.9c34.2,0,58,20.9,58,50.9c0,15-7.3,29.4-19.6,39
		c-10.4,8.1-22.2,11.7-38.5,11.7h-30.8L163.1,168.2L163.1,168.2z M261.7,168.2h21.1v101.7h-21.1V168.2z M684,168.2h59.7v17.2h-38.7
		V208h37.3v17.2h-37.3v27.4h38.7v17.2H684L684,168.2L684,168.2z M757.7,168.2H789c24.3,0,38.2,11,38.2,30c0,15.6-8.7,25.8-24.6,28.8
		l34,42.8h-25.9L781.5,229h-2.7v40.8h-21V168.2z M778.8,184.2V215h6.2c13.5,0,20.6-5.5,20.6-15.7c0-9.9-7.1-15.1-20.3-15.1
		L778.8,184.2L778.8,184.2z M184.2,185.4v67.2h5.7c13.6,0,22.2-2.5,28.8-8.1c7.3-6.1,11.7-15.9,11.7-25.6c0-9.7-4.4-19.2-11.7-25.3
		c-7-5.9-15.2-8.2-28.8-8.2L184.2,185.4L184.2,185.4z"/>
	<path class="st2" d="M519.8,164.9c31.7,0,57.5,24.2,57.5,54.1v0c0,29.9-25.7,54.1-57.5,54.1s-57.5-24.2-57.5-54.1v0
		C462.3,189.1,488,164.9,519.8,164.9L519.8,164.9z M894,295.3c-26.7,18.8-226.7,153.2-573.1,218.1h516.7c31.1,0,56.4-25.3,56.4-56.4
		L894,295.3L894,295.3z"/>
</g>
</svg>
