<?xml version="1.0" encoding="utf-8"?>
<!-- Generator: Adobe Illustrator 19.0.0, SVG Export Plug-In . SVG Version: 6.00 Build 0)  -->
<svg version="1.1" id="Layer_1" xmlns="http://www.w3.org/2000/svg" xmlns:xlink="http://www.w3.org/1999/xlink" x="0px" y="0px"
	 viewBox="94 5.3 800 502.4" style="enable-background:new 94 5.3 800 502.4;" xml:space="preserve">
<style type="text/css">
	.st0{fill:#0E4C96;}
	.st1{fill:#FFFFFF;}
	.st2{fill:url(#path3496_1_);}
	.st3{fill:url(#path3498_1_);}
	.st4{fill:url(#path3500_1_);}
</style>
<desc>Created with Sketch.</desc>
<g id="Page-1">
	<g id="jcb">
		<path id="Rectangle-1" class="st0" d="M136.7,5.3h714.7C874.9,5.3,894,24.4,894,48V465c0,23.6-19.1,42.7-42.7,42.7H136.7
			c-23.6,0-42.7-19.1-42.7-42.7V48C94,24.4,113.1,5.3,136.7,5.3z"/>
		<path id="path3494" class="st1" d="M752.4,375.2c0,44.4-36,80.4-80.4,80.4H235.6V137.8c0-44.4,36-80.4,80.4-80.4l436.4,0V375.2
			L752.4,375.2z"/>
		
			<linearGradient id="path3496_1_" gradientUnits="userSpaceOnUse" x1="187.3368" y1="791.5116" x2="188.3368" y2="791.5116" gradientTransform="matrix(141.7326 0 0 -344.5575 -25969.7324 272977.75)">
			<stop  offset="0" style="stop-color:#007B40"/>
			<stop  offset="1" style="stop-color:#55B330"/>
		</linearGradient>
		<path id="path3496" class="st2" d="M610.1,263.5c12.5,0.3,25-0.6,37.4,0.4c12.6,2.3,15.6,21.4,4.4,27.6
			c-7.6,4.1-16.7,1.5-24.9,2.3h-16.9V263.5z M654.7,229.2c2.8,9.8-6.7,18.6-16.1,17.2h-28.6c0.2-9.2-0.4-19.2,0.3-28
			c11.4,0.3,23-0.7,34.4,0.5C649.6,220.2,653.7,224.2,654.7,229.2z M723.5,84.2c0.5,18.7,0.1,38.3,0.2,57.4
			c0,77.4,0.1,154.9-0.1,232.3c-0.5,29-26.2,54.2-55,54.8c-28.8,0.1-57.7,0-86.6,0.1V311.7c31.4-0.2,62.9,0.3,94.3-0.2
			c14.6-0.9,30.5-10.5,31.2-26.6c1.7-16.1-13.5-27.3-27.9-29c-5.5-0.1-5.4-1.6,0-2.3c13.8-3,24.6-17.2,20.5-31.5
			c-3.5-15-20-20.8-33.8-20.8c-28.1-0.2-56.2,0-84.3-0.1c0.2-21.9-0.4-43.7,0.3-65.6c2.2-28.5,28.6-52,57-51.5
			C667.4,84.2,695.4,84.2,723.5,84.2z"/>
		
			<linearGradient id="path3498_1_" gradientUnits="userSpaceOnUse" x1="187.3443" y1="791.5116" x2="188.3394" y2="791.5116" gradientTransform="matrix(142.3261 0 0 -344.555 -26399.668 272975.8125)">
			<stop  offset="0" style="stop-color:#1D2970"/>
			<stop  offset="1" style="stop-color:#006DBA"/>
		</linearGradient>
		<path id="path3498" class="st3" d="M264.4,138.7c0.7-29,26.5-54,55.3-54.4c28.7-0.1,57.5,0,86.2,0c-0.1,96.9,0.2,193.9-0.1,290.8
			c-1.1,28.6-26.7,53.2-55.1,53.7c-28.8,0.1-57.6,0-86.4,0v-121c28,6.6,57.3,9.4,85.8,5c17.1-2.7,35.7-11.1,41.5-28.8
			c4.3-15.1,1.9-31.1,2.5-46.6v-36.1h-49.4c-0.2,23.9,0.5,47.8-0.4,71.6c-1.3,14.6-15.8,24-29.7,23.5c-17.1,0.2-51.1-12.4-51.1-12.4
			C263.6,239.2,264.1,183.2,264.4,138.7z"/>
		
			<linearGradient id="path3500_1_" gradientUnits="userSpaceOnUse" x1="187.3383" y1="791.5116" x2="188.3371" y2="791.5116" gradientTransform="matrix(141.8222 0 0 -344.5628 -26145.5508 272981.9375)">
			<stop  offset="0" style="stop-color:#6E2B2F"/>
			<stop  offset="1" style="stop-color:#E30138"/>
		</linearGradient>
		<path id="path3500" class="st4" d="M424.4,215.8c-2.6,0.6-0.5-8.9-1.2-12.4c0.2-22.6-0.4-45.1,0.3-67.7
			c2.2-28.6,28.8-52.2,57.3-51.5h84c-0.1,96.9,0.2,193.9-0.1,290.8c-1.1,28.6-26.7,53.2-55.1,53.7c-28.8,0.1-57.6,0-86.4,0V296.2
			c19.7,16.1,46.4,18.7,70.9,18.7c18.5,0,36.8-2.9,54.8-7.1v-24.3c-20.2,10.1-44,16.5-66.4,10.7c-15.6-3.9-27-19-26.7-35.1
			c-1.8-16.8,8-34.5,24.5-39.5c20.5-6.4,42.8-1.5,62,6.8c4.1,2.2,8.3,4.8,6.6-2v-19.1c-32.1-7.6-66.2-10.4-98.5-2.1
			C441,205.7,432,209.7,424.4,215.8z"/>
	</g>
</g>
</svg>
