<?xml version="1.0" encoding="utf-8"?>
<!-- Generator: Adobe Illustrator 19.0.0, SVG Export Plug-In . SVG Version: 6.00 Build 0)  -->
<svg version="1.1" id="Layer_1" xmlns="http://www.w3.org/2000/svg" xmlns:xlink="http://www.w3.org/1999/xlink" x="0px" y="0px"
	 viewBox="94 96 800 600" style="enable-background:new 94 96 800 600;" xml:space="preserve">
<style type="text/css">
	.st0{fill:#506C7F;}
	.st1{fill:#B4CCB9;}
	.st2{fill:#394240;}
	.st3{fill:#F9EBB2;}
</style>
<g>
	<rect x="119" y="246" class="st0" width="750" height="100"/>
	<g>
		<path class="st1" d="M119,646c0,13.8,11.2,25,25,25h700c13.8,0,25-11.2,25-25V371H119V646z"/>
		<path class="st1" d="M844,121H144c-13.8,0-25,11.2-25,25v75h750v-75C869,132.2,857.8,121,844,121z"/>
	</g>
	<path class="st2" d="M844,96H144c-27.6,0-50,22.4-50,50v500c0,27.6,22.4,50,50,50h700c27.6,0,50-22.4,50-50V146
		C894,118.4,871.6,96,844,96z M869,646c0,13.8-11.2,25-25,25H144c-13.8,0-25-11.2-25-25V371h750V646z M869,346H119V246h750V346z
		 M869,221H119v-75c0-13.8,11.2-25,25-25h700c13.8,0,25,11.2,25,25V221z"/>
	<path class="st2" d="M231.5,496h175c6.9,0,12.5-5.6,12.5-12.5s-5.6-12.5-12.5-12.5h-175c-6.9,0-12.5,5.6-12.5,12.5
		S224.6,496,231.5,496z"/>
	<path class="st2" d="M456.5,496h75c6.9,0,12.5-5.6,12.5-12.5s-5.6-12.5-12.5-12.5h-75c-6.9,0-12.5,5.6-12.5,12.5
		S449.6,496,456.5,496z"/>
	<path class="st2" d="M231.5,571h125c6.9,0,12.5-5.6,12.5-12.5s-5.6-12.5-12.5-12.5h-125c-6.9,0-12.5,5.6-12.5,12.5
		S224.6,571,231.5,571z"/>
	<path class="st2" d="M656.5,571h100c6.9,0,12.5-5.6,12.5-12.5v-75c0-6.9-5.6-12.5-12.5-12.5h-100c-6.9,0-12.5,5.6-12.5,12.5v75
		C644,565.4,649.6,571,656.5,571z M669,496h75v50h-75V496z"/>
	<rect x="669" y="496" class="st3" width="75" height="50"/>
</g>
</svg>
