<?xml version="1.0" encoding="utf-8"?>
<!-- Generator: Adobe Illustrator 19.0.0, SVG Export Plug-In . SVG Version: 6.00 Build 0)  -->
<svg version="1.1" id="Layer_1" xmlns="http://www.w3.org/2000/svg" xmlns:xlink="http://www.w3.org/1999/xlink" x="0px" y="0px"
	 viewBox="94 108.5 800 575" style="enable-background:new 94 108.5 800 575;" xml:space="preserve">
<style type="text/css">
	.st0{fill:#26A6D1;}
	.st1{fill:#FFFFFF;}
</style>
<g>
	<path class="st0" d="M144,108.5h700c27.6,0,50,22.4,50,50v475c0,27.6-22.4,50-50,50H144c-27.6,0-50-22.4-50-50v-475
		C94,130.9,116.4,108.5,144,108.5z"/>
	<path class="st1" d="M223,308.5l-79,174.8h94.6l11.7-27.9h26.8l11.7,27.9h104.1V462l9.3,21.3H456l9.3-21.7v21.7h216.5l26.3-27.2
		l24.7,27.2l111.2,0.2l-79.3-87.1l79.3-87.9H734.5l-25.6,26.6L685,308.5H449.5l-20.2,45.1l-20.7-45.1h-94.4V329l-10.5-20.6
		C303.7,308.5,223,308.5,223,308.5z M241.3,333.3h46.1l52.4,118.6V333.3h50.5l40.5,85l37.3-85h50.2v125.4h-30.6l-0.2-98.3
		l-44.6,98.3h-27.4l-44.8-98.3v98.3h-62.9l-11.9-28.1h-64.4l-11.9,28.1h-33.7C185.9,458.7,241.3,333.3,241.3,333.3z M546.3,333.3
		h124.3l38,41.1l39.3-41.1h38l-57.8,63.1l57.8,62.3h-39.7l-38-41.6l-39.5,41.6H546.3V333.3L546.3,333.3z M263.7,354.5l-21.2,50.1
		h42.4L263.7,354.5z M577,359.3v22.9h67.8v25.5H577v25h76.1l35.3-36.8l-33.8-36.6L577,359.3L577,359.3z"/>
</g>
</svg>
