<?xml version="1.0" encoding="utf-8"?>
<!-- Generator: Adobe Illustrator 19.0.0, SVG Export Plug-In . SVG Version: 6.00 Build 0)  -->
<svg version="1.1" id="Layer_1" xmlns="http://www.w3.org/2000/svg" xmlns:xlink="http://www.w3.org/1999/xlink" x="0px" y="0px"
	 viewBox="94 145.6 800 502.4" style="enable-background:new 94 145.6 800 502.4;" xml:space="preserve">
<style type="text/css">
	.st0{fill:#0E4C96;}
	.st1{fill:#006095;stroke:#000000;stroke-width:5.120000e-003;}
	.st2{fill:#FFFFFF;stroke:#000000;stroke-width:5.120000e-003;}
</style>
<desc>Created with Sketch.</desc>
<g id="Page-1">
	<g id="jcb">
		<path id="Rectangle-1" class="st0" d="M136.7,145.6h714.7c23.5,0,42.6,19.1,42.6,42.7v417c0,23.6-19.1,42.7-42.7,42.7H136.7
			c-23.6,0-42.7-19.1-42.7-42.7v-417C94,164.7,113.1,145.6,136.7,145.6z"/>
	</g>
</g>
<g id="SVGRepo_iconCarrier">
	<g>
		<path class="st1" d="M274.3,490.2c50.8,0.2,97.3-41.4,97.3-92c0-55.4-46.4-93.6-97.3-93.6h-43.8c-51.5,0-93.8,38.3-93.8,93.6
			c0,50.6,42.4,92.3,93.8,92H274.3"/>
		<path class="st2" d="M250,447.5V346.9c20.3,7.8,34.6,27.3,34.7,50.3C284.7,420.2,270.3,439.7,250,447.5 M176.8,397.2
			c0-22.9,14.4-42.5,34.6-50.3v100.5C191.2,439.7,176.8,420.1,176.8,397.2 M230.7,312.2c-47,0-85.1,38-85.1,85
			c0,46.9,38.1,85,85.1,85c47,0,85.1-38,85.1-85C315.9,350.3,277.7,312.2,230.7,312.2"/>
		<path class="st2" d="M401.3,344.5c0-8.8-4.6-8.2-9-8.3v-2.5c3.8,0.2,7.7,0.2,11.5,0.2c4.1,0,9.7-0.2,16.9-0.2
			c25.3,0,39.1,16.9,39.1,34.2c0,9.7-5.7,34-40.3,34c-5,0-9.6-0.2-14.2-0.2c-4.4,0-8.7,0.1-13.1,0.2v-2.5c5.9-0.6,8.7-0.8,9-7.4
			V344.5z M410.9,390.3c0,7.5,5.4,8.4,10.2,8.4c21.1,0,28.1-15.9,28.1-30.5c0-18.3-11.7-31.4-30.6-31.4c-4,0-5.9,0.3-7.6,0.4V390.3z
			 M463.4,399.3h1.9c2.7,0,4.7,0,4.7-3.2v-26.5c0-4.3-1.5-4.9-5.1-6.8v-1.6c4.6-1.4,10.1-3.2,10.5-3.5c0.7-0.4,1.3-0.5,1.8-0.5
			c0.5,0,0.7,0.6,0.7,1.4V396c0,3.2,2.2,3.2,4.9,3.2h1.7v2.5c-3.3,0-6.8-0.2-10.3-0.2c-3.5,0-7,0.1-10.7,0.2V399.3z M473.8,342.1
			c-2.5,0-4.8-2.3-4.8-4.9c0-2.4,2.4-4.7,4.8-4.7c2.5,0,4.8,2.1,4.8,4.7C478.6,339.9,476.5,342.1,473.8,342.1z M493.6,370.2
			c0-3.6-1.1-4.6-5.7-6.4v-1.9c4.2-1.4,8.2-2.6,12.9-4.7c0.3,0,0.6,0.2,0.6,1v6.3c5.6-4,10.4-7.3,16.9-7.3c8.3,0,11.2,6.1,11.2,13.7
			V396c0,3.2,2.1,3.2,4.9,3.2h1.8v2.5c-3.4,0-6.9-0.2-10.4-0.2c-3.5,0-7.1,0.1-10.6,0.2v-2.5h1.8c2.7,0,4.7,0,4.7-3.2v-25.3
			c0-5.6-3.4-8.3-9-8.3c-3.1,0-8.1,2.5-11.4,4.7V396c0,3.2,2.2,3.2,4.9,3.2h1.8v2.5c-3.4,0-6.9-0.2-10.4-0.2c-3.5,0-7,0.1-10.6,0.2
			v-2.5h1.8c2.7,0,4.7,0,4.7-3.2V370.2z M543.7,374.9c-0.2,0.9-0.2,2.3,0,5.7c0.6,9.3,6.6,16.9,14.4,16.9c5.4,0,9.6-2.9,13.2-6.5
			l1.4,1.4c-4.5,6-10.1,11-18.1,11c-15.6,0-18.7-15-18.7-21.3c0-19.1,12.9-24.8,19.8-24.8c7.9,0,16.4,5,16.5,15.3
			c0,0.6,0,1.2-0.1,1.8l-0.9,0.6H543.7z M561,371.7c2.4,0,2.7-1.3,2.7-2.4c0-5-3-9-8.5-9c-6,0-10.1,4.4-11.2,11.4H561z M574.4,399.3
			h2.6c2.7,0,4.7,0,4.7-3.2v-27.4c0-3-3.6-3.6-5.1-4.4v-1.5c7.1-3,11.1-5.6,11.9-5.6c0.6,0,0.9,0.3,0.9,1.3v8.8h0.2
			c2.4-3.8,6.6-10.1,12.5-10.1c2.4,0,5.6,1.7,5.6,5.2c0,2.6-1.9,5-4.6,5c-3,0-3-2.3-6.5-2.3c-1.7,0-7.1,2.2-7.1,8.1V396
			c0,3.2,2,3.2,4.7,3.2h5.5v2.5c-5.4-0.1-9.5-0.2-13.7-0.2c-4,0-8.1,0.1-11.6,0.2V399.3z M612.1,388.2c1.3,6.4,5.2,11.9,12.3,11.9
			c5.8,0,7.9-3.5,7.9-6.9c0-11.5-21.3-7.8-21.3-23.5c0-5.5,4.4-12.5,15.2-12.5c3.1,0,7.3,0.9,11.1,2.8l0.7,10h-2.3
			c-1-6.1-4.4-9.7-10.7-9.7c-3.9,0-7.6,2.2-7.6,6.4c0,11.4,22.7,7.9,22.7,23.2c0,6.4-5.2,13.3-16.8,13.3c-3.9,0-8.5-1.4-11.9-3.3
			l-1.1-11.2L612.1,388.2z M728.5,351.3H726c-1.9-11.4-10-16-20.9-16c-11.3,0-27.6,7.5-27.6,30.9c0,19.7,14.1,33.9,29.2,33.9
			c9.7,0,17.7-6.6,19.7-16.9l2.2,0.6l-2.2,14.3c-4.1,2.5-15.2,5.2-21.6,5.2c-22.9,0-37.4-14.7-37.4-36.7c0-20,17.9-34.4,37.1-34.4
			c7.9,0,15.6,2.5,23.1,5.2L728.5,351.3z M732,399.3h1.8c2.7,0,4.7,0,4.7-3.2v-54.4c0-6.4-1.5-6.5-5.2-7.6v-1.6
			c3.9-1.3,8-3,10.1-4.2c1.1-0.6,1.9-1.1,2.1-1.1c0.6,0,0.8,0.6,0.8,1.4V396c0,3.2,2.1,3.2,4.9,3.2h1.7v2.5c-3.3,0-6.7-0.2-10.3-0.2
			c-3.5,0-7,0.1-10.7,0.2V399.3z M794.8,396.4c0,1.8,1.1,1.9,2.7,1.9c1.2,0,2.6-0.1,3.9-0.1v2.1c-4.2,0.4-12.2,2.4-14.1,3l-0.5-0.3
			v-7.9c-5.9,4.8-10.4,8.2-17.3,8.2c-5.3,0-10.8-3.4-10.8-11.6v-25c0-2.5-0.4-5-5.9-5.5v-1.9c3.5-0.1,11.3-0.7,12.6-0.7
			c1.1,0,1.1,0.7,1.1,2.8v25.2c0,2.9,0,11.3,8.5,11.3c3.3,0,7.7-2.5,11.8-5.9v-26.3c0-1.9-4.7-3-8.2-4V360
			c8.8-0.6,14.3-1.4,15.3-1.4c0.8,0,0.8,0.7,0.8,1.8V396.4z M814.3,364.2c3.9-3.3,9.2-7,14.6-7c11.3,0,18.2,9.9,18.2,20.5
			c0,12.8-9.4,25.6-23.4,25.6c-7.2,0-11-2.3-13.6-3.4l-2.9,2.2l-2-1.1c0.9-5.8,1.4-11.4,1.4-17.4v-42c0-6.4-1.5-6.5-5.2-7.6v-1.6
			c3.9-1.3,8-3,10.1-4.2c1.1-0.6,1.9-1.1,2.2-1.1c0.6,0,0.8,0.6,0.8,1.4V364.2z M814.3,390.8c0,3.7,3.5,10,10.1,10
			c10.5,0,14.9-10.3,14.9-19c0-10.5-8-19.3-15.6-19.3c-3.6,0-6.7,2.3-9.3,4.6V390.8z M392.2,458.6h0.7c1.9,0,3.9-0.3,3.9-3v-27.8
			c0-2.8-2-3-3.9-3h-0.7v-1.6c2.1,0,5.3,0.2,7.9,0.2c2.7,0,5.8-0.2,8.3-0.2v1.6h-0.7c-1.9,0-3.9,0.3-3.9,3v27.8c0,2.8,2,3,3.9,3h0.7
			v1.6c-2.6,0-5.8-0.2-8.4-0.2c-2.6,0-5.8,0.2-7.8,0.2V458.6z M445,449.7l0.1-0.1v-19.9c0-4.4-3-5-4.6-5h-1.2v-1.6
			c2.5,0,5,0.2,7.5,0.2c2.2,0,4.4-0.2,6.5-0.2v1.6h-0.8c-2.2,0-4.7,0.4-4.7,6.7v24.2c0,1.9,0.1,3.7,0.3,5.4h-2l-27.4-30.5v21.9
			c0,4.6,0.9,6.2,5,6.2h0.9v1.6c-2.3,0-4.6-0.2-6.9-0.2c-2.4,0-4.8,0.2-7.2,0.2v-1.6h0.7c3.7,0,4.8-2.5,4.8-6.7v-22.4
			c0-3-2.5-4.8-4.8-4.8h-0.7v-1.6c2,0,4.1,0.2,6.1,0.2c1.6,0,3.1-0.2,4.7-0.2L445,449.7z M461.3,425.7c-4,0-4.1,1-4.9,4.8h-1.6
			c0.2-1.5,0.5-3,0.6-4.5c0.2-1.5,0.3-3,0.3-4.5h1.3c0.4,1.6,1.8,1.5,3.2,1.5h27.5c1.4,0,2.8-0.1,2.9-1.6l1.3,0.2
			c-0.2,1.4-0.4,2.9-0.6,4.3c-0.1,1.4-0.1,2.9-0.1,4.3l-1.6,0.6c-0.1-2-0.4-5.1-3.9-5.1h-8.7V454c0,4.1,1.9,4.6,4.4,4.6h1v1.6
			c-2.1,0-5.8-0.2-8.7-0.2c-3.2,0-6.9,0.2-9,0.2v-1.6h1c2.9,0,4.4-0.3,4.4-4.5v-28.4H461.3z M493.5,458.6h0.7c1.9,0,3.9-0.3,3.9-3
			v-27.8c0-2.8-2-3-3.9-3h-0.7v-1.6c3.2,0,8.8,0.2,13.3,0.2c4.5,0,10-0.2,13.6-0.2c-0.1,2.3,0,5.8,0.1,8.1l-1.6,0.4
			c-0.3-3.5-0.9-6.2-6.5-6.2H505v13.9h6.3c3.2,0,3.9-1.8,4.2-4.7h1.6c-0.1,2.1-0.2,4.1-0.2,6.2c0,2,0.1,4,0.2,6.1l-1.6,0.3
			c-0.3-3.2-0.5-5.3-4.2-5.3H505v12.4c0,3.5,3.1,3.5,6.5,3.5c6.4,0,9.2-0.4,10.8-6.5l1.5,0.4c-0.7,2.8-1.3,5.6-1.8,8.5
			c-3.4,0-9.5-0.2-14.3-0.2c-4.8,0-11.1,0.2-14.2,0.2V458.6z M531,428.7c0-3.9-2.1-4-3.8-4h-1v-1.6c1.7,0,5,0.2,8.3,0.2
			c3.2,0,5.7-0.2,8.6-0.2c6.7,0,12.7,1.8,12.7,9.4c0,4.8-3.2,7.7-7.4,9.4l9.1,13.6c1.5,2.2,2.6,2.9,5.2,3.2v1.6
			c-1.8,0-3.5-0.2-5.2-0.2c-1.6,0-3.4,0.2-5,0.2c-4.1-5.4-7.6-11.1-11.1-17.2h-3.5v11.4c0,4.1,1.9,4.2,4.4,4.2h1v1.6
			c-3,0-6.1-0.2-9.2-0.2c-2.6,0-5.1,0.2-7.7,0.2v-1.6h1c2,0,3.8-0.9,3.8-2.9V428.7z M537.8,441h2.6c5.3,0,8.2-2,8.2-8.3
			c0-4.7-3-7.8-7.8-7.8c-1.6,0-2.3,0.2-3,0.2V441z M598.7,449.7l0.1-0.1v-19.9c0-4.4-3-5-4.6-5H593v-1.6c2.5,0,4.9,0.2,7.4,0.2
			c2.2,0,4.4-0.2,6.6-0.2v1.6h-0.8c-2.2,0-4.7,0.4-4.7,6.7v24.2c0,1.9,0,3.7,0.3,5.4h-2l-27.4-30.5v21.9c0,4.6,0.9,6.2,5,6.2h0.9
			v1.6c-2.3,0-4.6-0.2-6.9-0.2c-2.4,0-4.9,0.2-7.2,0.2v-1.6h0.7c3.7,0,4.8-2.5,4.8-6.7v-22.4c0-3-2.4-4.8-4.8-4.8h-0.7v-1.6
			c2,0,4.1,0.2,6.1,0.2c1.6,0,3.1-0.2,4.7-0.2L598.7,449.7z M615.6,452.6c-0.5,1.8-1.2,3.2-1.2,4.1c0,1.6,2.2,1.9,4,1.9h0.6v1.6
			c-2.1-0.1-4.3-0.2-6.5-0.2c-1.9,0-3.8,0.1-5.7,0.2v-1.6h0.3c2.1,0,3.8-1.2,4.6-3.5l8.5-24.4c0.7-2,1.7-4.6,2-6.6
			c1.7-0.6,3.8-1.6,4.8-2.3c0.2-0.1,0.3-0.1,0.4-0.1c0.2,0,0.3,0,0.4,0.2c0.2,0.4,0.3,0.9,0.5,1.3l9.8,27.8c0.6,1.9,1.3,3.8,2,5.4
			c0.6,1.5,1.8,2.1,3.5,2.1h0.3v1.6c-2.4-0.1-4.8-0.2-7.3-0.2c-2.6,0-5.3,0.1-8,0.2v-1.6h0.6c1.2,0,3.3-0.2,3.3-1.5
			c0-0.7-0.5-2.1-1.1-3.8l-2.1-6.2h-12.1L615.6,452.6z M623.4,429h-0.1l-5,15h9.9L623.4,429z M646.3,425.7c-4,0-4.2,1-5,4.8h-1.6
			c0.2-1.5,0.5-3,0.6-4.5c0.2-1.5,0.3-3,0.3-4.5h1.3c0.4,1.6,1.8,1.5,3.2,1.5h27.5c1.4,0,2.8-0.1,2.9-1.6l1.3,0.2
			c-0.2,1.4-0.4,2.9-0.6,4.3c-0.1,1.4-0.1,2.9-0.1,4.3l-1.6,0.6c-0.1-2-0.4-5.1-3.9-5.1h-8.7V454c0,4.1,1.9,4.6,4.4,4.6h1v1.6
			c-2.1,0-5.8-0.2-8.7-0.2c-3.2,0-6.9,0.2-9,0.2v-1.6h1c2.9,0,4.4-0.3,4.4-4.5v-28.4H646.3z M678.8,458.6h0.7c1.9,0,3.9-0.3,3.9-3
			v-27.8c0-2.8-2-3-3.9-3h-0.7v-1.6c2.1,0,5.3,0.2,7.9,0.2c2.7,0,5.9-0.2,8.4-0.2v1.6h-0.7c-1.9,0-3.9,0.3-3.9,3v27.8
			c0,2.8,2,3,3.9,3h0.7v1.6c-2.6,0-5.8-0.2-8.4-0.2c-2.6,0-5.7,0.2-7.8,0.2V458.6z M716.2,422.3c11.3,0,20.4,7,20.4,18.3
			c0,12.2-8.8,20.3-20.1,20.3c-11.3,0-19.9-7.6-19.9-19.1C696.6,430.8,705.2,422.3,716.2,422.3z M717.1,458.6
			c10.3,0,12.1-9.1,12.1-16.8c0-7.8-4.2-17.2-13-17.2c-9.3,0-12.1,8.3-12.1,15.4C704.1,449.5,708.4,458.6,717.1,458.6z M772.5,449.7
			l0.1-0.1v-19.9c0-4.4-3-5-4.6-5h-1.2v-1.6c2.5,0,4.9,0.2,7.4,0.2c2.2,0,4.4-0.2,6.6-0.2v1.6H780c-2.2,0-4.7,0.4-4.7,6.7v24.2
			c0,1.9,0,3.7,0.3,5.4h-2l-27.4-30.5v21.9c0,4.6,0.9,6.2,5,6.2h0.9v1.6c-2.3,0-4.6-0.2-6.9-0.2c-2.4,0-4.9,0.2-7.2,0.2v-1.6h0.8
			c3.7,0,4.8-2.5,4.8-6.7v-22.4c0-3-2.4-4.8-4.8-4.8H738v-1.6c2,0,4.1,0.2,6.1,0.2c1.6,0,3.1-0.2,4.7-0.2L772.5,449.7z M789.4,452.6
			c-0.5,1.8-1.2,3.2-1.2,4.1c0,1.6,2.2,1.9,4,1.9h0.6v1.6c-2.1-0.1-4.3-0.2-6.4-0.2c-1.9,0-3.8,0.1-5.7,0.2v-1.6h0.3
			c2.1,0,3.8-1.2,4.6-3.5l8.5-24.4c0.7-2,1.7-4.6,2-6.6c1.7-0.6,3.8-1.6,4.9-2.3c0.2-0.1,0.3-0.1,0.4-0.1c0.2,0,0.3,0,0.4,0.2
			c0.2,0.4,0.3,0.9,0.5,1.3l9.8,27.8c0.6,1.9,1.3,3.8,2,5.4c0.6,1.5,1.8,2.1,3.5,2.1h0.3v1.6c-2.4-0.1-4.8-0.2-7.4-0.2
			c-2.6,0-5.3,0.1-8,0.2v-1.6h0.6c1.2,0,3.3-0.2,3.3-1.5c0-0.7-0.5-2.1-1.1-3.8l-2.1-6.2h-12.1L789.4,452.6z M797.1,429H797l-5,15
			h10L797.1,429z M831.2,455c0,2.1,1.5,2.8,3.2,3c2.2,0.2,4.6,0.2,7-0.1c2.2-0.3,4.1-1.5,5.1-2.9c0.8-1.2,1.3-2.7,1.7-3.8h1.5
			c-0.6,3-1.3,6-2,9c-4.7,0-9.4-0.2-14-0.2c-4.7,0-9.4,0.2-14.1,0.2v-1.6h0.7c1.9,0,4-0.3,4-3.6v-27.3c0-2.8-2.1-3-4-3h-0.7v-1.6
			c2.8,0,5.6,0.2,8.4,0.2c2.7,0,5.4-0.2,8.1-0.2v1.6h-1.3c-2,0-3.6,0.1-3.6,2.9V455z"/>
	</g>
</g>
</svg>
