<?xml version="1.0" encoding="utf-8"?>
<!-- Generator: Adobe Illustrator 19.0.0, SVG Export Plug-In . SVG Version: 6.00 Build 0)  -->
<svg version="1.1" id="Layer_1" xmlns="http://www.w3.org/2000/svg" xmlns:xlink="http://www.w3.org/1999/xlink" x="0px" y="0px"
	 viewBox="94 5.3 800 502.4" style="enable-background:new 94 5.3 800 502.4;" xml:space="preserve">
<style type="text/css">
	.st0{fill:#D9222A;}
	.st1{fill:#EE9F2D;}
	.st2{fill:#FFFFFF;}
</style>
<desc>Created with Sketch.</desc>
<g id="Page-1">
	<g id="mastercard">
		<path id="Rectangle-1" d="M136.7,5.3h714.7C874.9,5.3,894,24.4,894,48V465c0,23.6-19.1,42.7-42.7,42.7H136.7
			c-23.6,0-42.7-19.1-42.7-42.7V48C94,24.4,113.1,5.3,136.7,5.3z"/>
		<path id="Fill-1" class="st0" d="M556.9,256.5c0,105.8-85.7,191.5-191.5,191.5S174,362.3,174,256.5C174,150.8,259.7,65,365.5,65
			S556.9,150.8,556.9,256.5"/>
		<path id="Fill-2" class="st1" d="M622.5,65C573.1,65,528,83.8,494,114.6c-6.9,6.3-13.4,13.1-19.3,20.3h38.7
			c5.3,6.4,10.2,13.2,14.6,20.3h-67.9c-4.1,6.5-7.8,13.3-11,20.3H539c3.1,6.6,5.8,13.3,8.1,20.3H440.9c-2.2,6.6-4.1,13.4-5.6,20.3
			h117.3c2.8,13.1,4.3,26.6,4.3,40.5c0,21.3-3.5,41.7-9.9,60.8H440.9c2.3,6.9,5,13.7,8.1,20.3H539c-3.3,7-7,13.8-11,20.3h-67.9
			c4.4,7.1,9.3,13.8,14.6,20.3h38.7c-5.9,7.2-12.4,14-19.3,20.3c34,30.8,79.1,49.6,128.5,49.6C728.3,448,814,362.3,814,256.5
			C814,150.8,728.3,65,622.5,65"/>
		<path id="Fill-3" d="M788.5,363.2c0-3.4,2.8-6.2,6.2-6.2s6.2,2.8,6.2,6.2c0,3.4-2.8,6.2-6.2,6.2S788.5,366.6,788.5,363.2z
			 M794.7,367.9c2.6,0,4.7-2.1,4.7-4.7c0-2.6-2.1-4.7-4.7-4.7c-2.6,0-4.7,2.1-4.7,4.7C790,365.8,792.1,367.9,794.7,367.9z
			 M793.8,365.9h-1.3v-5.4h2.3c0.5,0,1,0,1.4,0.3c0.4,0.3,0.7,0.8,0.7,1.4c0,0.6-0.4,1.2-0.9,1.4l1,2.4h-1.4l-0.8-2.2h-0.9V365.9z
			 M793.8,362.9h0.7c0.3,0,0.5,0,0.8-0.1c0.2-0.1,0.3-0.4,0.3-0.6c0-0.2-0.1-0.4-0.3-0.6c-0.2-0.1-0.6-0.1-0.8-0.1h-0.7V362.9z"/>
		<path id="Fill-4" d="M320.8,277.5c-2.2-0.3-3.1-0.3-4.6-0.3c-11.8,0-17.7,4-17.7,12c0,4.9,2.9,8,7.5,8
			C314.3,297.2,320.4,289.1,320.8,277.5z M335.9,312.7h-17.2l0.4-8.2c-5.3,6.5-12.3,9.5-21.8,9.5c-11.3,0-19-8.8-19-21.6
			c0-19.2,13.4-30.4,36.5-30.4c2.4,0,5.4,0.2,8.5,0.6c0.6-2.6,0.8-3.7,0.8-5.1c0-5.2-3.6-7.2-13.3-7.2c-10.2-0.1-18.6,2.4-22,3.6
			c0.2-1.3,2.9-17.8,2.9-17.8c10.4-3,17.2-4.2,24.9-4.2c17.8,0,27.3,8,27.3,23.2c0,4.1-0.6,9.1-1.7,15.6
			C340.3,282.2,336.4,306.7,335.9,312.7z"/>
		<polyline id="Fill-5" points="269.6,312.7 248.8,312.7 260.7,238 234.1,312.7 219.9,312.7 218.2,238.4 205.7,312.7 186.2,312.7 
			202.5,215.5 232.4,215.5 234.2,269.9 252.4,215.5 285.6,215.5 269.6,312.7 		"/>
		<path id="Fill-6" d="M648.2,277.5c-2.2-0.3-3.1-0.3-4.6-0.3c-11.8,0-17.7,4-17.7,12c0,4.9,2.9,8,7.4,8
			C641.8,297.2,647.9,289.1,648.2,277.5z M663.3,312.7h-17.2l0.4-8.2c-5.3,6.5-12.3,9.5-21.8,9.5c-11.3,0-19-8.8-19-21.6
			c0-19.2,13.4-30.4,36.5-30.4c2.4,0,5.4,0.2,8.5,0.6c0.6-2.6,0.8-3.7,0.8-5.1c0-5.2-3.6-7.2-13.3-7.2c-10.2-0.1-18.5,2.4-22,3.6
			c0.2-1.3,2.9-17.8,2.9-17.8c10.4-3,17.2-4.2,24.9-4.2c17.9,0,27.3,8,27.3,23.2c0,4.1-0.6,9.1-1.7,15.6
			C667.7,282.2,663.9,306.7,663.3,312.7z"/>
		<path id="Fill-7" d="M428.3,311.5c-5.7,1.8-10.1,2.6-14.9,2.6c-10.6,0-16.4-6.1-16.4-17.4c-0.2-3.5,1.5-12.7,2.8-21.1
			c1.2-7.4,9-53.9,9-53.9h20.7l-2.4,12h12.5l-2.8,19h-12.5c-2.4,15-5.8,33.7-5.9,36.2c0,4.1,2.2,5.8,7.1,5.8c2.4,0,4.2-0.2,5.6-0.7
			L428.3,311.5"/>
		<path id="Fill-8" d="M491.6,310.8c-7.1,2.2-13.9,3.2-21.2,3.2c-23.1,0-35.2-12.1-35.2-35.2c0-27,15.3-46.9,36.2-46.9
			c17,0,27.9,11.1,27.9,28.6c0,5.8-0.7,11.4-2.5,19.4h-41.1c-1.4,11.5,5.9,16.2,18,16.2c7.4,0,14.1-1.5,21.5-5L491.6,310.8z
			 M480,264c0.1-1.6,2.2-14.1-9.6-14.1c-6.6,0-11.3,5-13.2,14.1H480z"/>
		<path id="Fill-9" d="M348.3,258.6c0,10,4.8,16.9,15.8,22.1c8.4,4,9.7,5.1,9.7,8.7c0,4.9-3.7,7.1-11.9,7.1c-6.2,0-12-1-18.6-3.1
			c0,0-2.7,17.4-2.9,18.2c4.7,1,8.9,2,21.6,2.3c21.9,0,32.1-8.4,32.1-26.4c0-10.9-4.2-17.2-14.7-22c-8.7-4-9.7-4.9-9.7-8.6
			c0-4.3,3.5-6.4,10.2-6.4c4.1,0,9.7,0.4,14.9,1.2l3-18.3c-5.4-0.9-13.5-1.5-18.3-1.5C356.3,231.9,348.3,244.1,348.3,258.6"/>
		<path id="Fill-10" d="M592.7,234c5.8,0,11.2,1.5,18.6,5.2l3.4-21.1c-3-1.2-13.8-8.2-22.8-8.2c-13.9,0-25.7,6.9-33.9,18.3
			c-12.1-4-17,4.1-23.1,12.1l-5.4,1.3c0.4-2.6,0.8-5.3,0.7-7.9H511c-2.6,24.4-7.2,49.2-10.8,73.7l-0.9,5.3H520
			c3.5-22.6,5.4-37,6.5-46.8l7.8-4.4c1.2-4.4,4.8-5.8,12.2-5.6c-1,5.2-1.5,10.6-1.5,16.2c0,25.8,13.9,41.9,36.3,41.9
			c5.8,0,10.7-0.8,18.4-2.8l3.7-22.1c-6.9,3.4-12.5,5-17.7,5c-12.1,0-19.4-8.9-19.4-23.7C566.3,249,577.2,234,592.7,234"/>
		<polyline id="Fill-12" class="st2" points="275.6,306.9 254.8,306.9 266.7,232.2 240.1,306.9 225.9,306.9 224.2,232.7 
			211.7,306.9 192.2,306.9 208.5,209.8 238.3,209.8 239.2,269.9 259.3,209.8 291.6,209.8 275.6,306.9 		"/>
		<path id="Fill-11" d="M768.7,215.5l-4.6,28.1c-5.7-7.5-11.8-12.9-19.9-12.9c-10.5,0-20,8-26.3,19.7c-8.7-1.8-17.7-4.9-17.7-4.9
			l0,0.1c0.7-6.5,1-10.5,0.9-11.9h-19.1c-2.6,24.4-7.2,49.2-10.8,73.7l-1,5.3h20.8c2.8-18.2,5-33.4,6.5-45.4
			c7.1-6.4,10.7-12,17.8-11.6c-3.2,7.7-5,16.5-5,25.6c0,19.7,10,32.8,25.1,32.8c7.6,0,13.5-2.6,19.2-8.7l-1,7.3h19.7l15.8-97.1
			H768.7z M742.7,294.4c-7.1,0-10.6-5.2-10.6-15.6c0-15.5,6.7-26.5,16.1-26.5c7.1,0,11,5.4,11,15.5
			C759.2,283.4,752.4,294.4,742.7,294.4z"/>
		<path id="Fill-13" class="st2" d="M326.7,271.7c-2.2-0.3-3.1-0.3-4.6-0.3c-11.8,0-17.7,4-17.7,12c0,4.9,2.9,8,7.4,8
			C320.3,291.5,326.4,283.4,326.7,271.7z M341.9,306.9h-17.2l0.4-8.2c-5.2,6.5-12.3,9.5-21.8,9.5c-11.3,0-19-8.8-19-21.6
			c0-19.2,13.4-30.4,36.5-30.4c2.4,0,5.4,0.2,8.5,0.6c0.6-2.6,0.8-3.7,0.8-5.1c0-5.2-3.6-7.2-13.3-7.2c-10.2-0.1-18.6,2.4-22,3.5
			c0.2-1.3,2.9-17.7,2.9-17.7c10.4-3,17.2-4.2,24.9-4.2c17.9,0,27.3,8,27.3,23.2c0,4.1-0.6,9.1-1.7,15.7
			C346.3,276.4,342.4,300.9,341.9,306.9z"/>
		<path id="Fill-14" class="st2" d="M620.7,212.4l-3.4,21.1c-7.4-3.7-12.8-5.2-18.6-5.2c-15.5,0-26.4,15-26.4,36.4
			c0,14.7,7.3,23.7,19.4,23.7c5.1,0,10.8-1.6,17.7-5l-3.6,22.1c-7.7,2.1-12.6,2.8-18.4,2.8c-22.4,0-36.3-16.1-36.3-41.9
			c0-34.7,19.3-59,46.8-59C606.9,207.3,617.6,211.2,620.7,212.4"/>
		<path id="Fill-15" class="st2" d="M654.2,271.7c-2.2-0.3-3.1-0.3-4.6-0.3c-11.8,0-17.7,4-17.7,12c0,4.9,2.9,8,7.4,8
			C647.7,291.5,653.8,283.4,654.2,271.7z M669.3,306.9h-17.2l0.4-8.2c-5.3,6.5-12.3,9.5-21.8,9.5c-11.3,0-19-8.8-19-21.6
			c0-19.2,13.4-30.4,36.5-30.4c2.4,0,5.4,0.2,8.5,0.6c0.6-2.6,0.8-3.7,0.8-5.1c0-5.2-3.6-7.2-13.3-7.2c-10.2-0.1-18.6,2.4-22,3.5
			c0.2-1.3,2.9-17.7,2.9-17.7c10.4-3,17.2-4.2,24.9-4.2c17.9,0,27.3,8,27.3,23.2c0,4.1-0.6,9.1-1.7,15.7
			C673.7,276.4,669.8,300.9,669.3,306.9z"/>
		<path id="Fill-16" class="st2" d="M434.2,305.7c-5.7,1.8-10.1,2.6-14.9,2.6c-10.6,0-16.4-6.1-16.4-17.4
			c-0.1-3.5,1.5-12.7,2.9-21.1c1.2-7.4,9-53.9,9-53.9h20.7l-2.4,12h10.6l-2.8,19h-10.6c-2.4,15-5.8,33.7-5.9,36.2
			c0,4.1,2.2,5.8,7.1,5.8c2.4,0,4.2-0.2,5.6-0.7L434.2,305.7"/>
		<path id="Fill-17" class="st2" d="M497.6,305.1c-7.1,2.2-14,3.2-21.2,3.2c-23.1,0-35.2-12.1-35.2-35.2c0-27,15.3-46.9,36.2-46.9
			c17,0,27.9,11.1,27.9,28.6c0,5.8-0.7,11.4-2.5,19.4h-41.1c-1.4,11.5,5.9,16.2,18,16.2c7.4,0,14.1-1.5,21.5-5L497.6,305.1z
			 M486,258.2c0.1-1.6,2.2-14.1-9.6-14.1c-6.6,0-11.3,5-13.2,14.1H486z"/>
		<path id="Fill-18" class="st2" d="M354.3,252.9c0,10,4.8,16.9,15.8,22.1c8.4,4,9.7,5.1,9.7,8.7c0,4.9-3.7,7.1-11.9,7.1
			c-6.2,0-12-1-18.6-3.1c0,0-2.7,17.4-2.8,18.2c4.7,1,8.9,2,21.6,2.3c21.9,0,32.1-8.4,32.1-26.4c0-10.9-4.2-17.2-14.7-22
			c-8.7-4-9.7-4.9-9.7-8.6c0-4.3,3.5-6.5,10.2-6.5c4.1,0,9.6,0.4,14.9,1.2l3-18.3c-5.4-0.9-13.5-1.5-18.3-1.5
			C362.3,226.1,354.3,238.3,354.3,252.9"/>
		<path id="Fill-19" class="st2" d="M779.3,306.9h-19.7l1-7.4c-5.7,6.1-11.5,8.7-19.2,8.7c-15.1,0-25.1-13-25.1-32.8
			c0-26.3,15.5-48.4,33.8-48.4c8.1,0,14.2,3.3,19.8,10.8l4.6-28.1h20.5L779.3,306.9z M748.7,288.6c9.7,0,16.5-11,16.5-26.6
			c0-10-3.9-15.5-11-15.5c-9.4,0-16.1,11-16.1,26.5C738,283.4,741.6,288.6,748.7,288.6z"/>
		<path id="Fill-20" class="st2" d="M688,227.9c-2.6,24.4-7.2,49.2-10.8,73.7l-1,5.3H697c7.4-48.3,9.2-57.7,20.9-56.5
			c1.9-9.9,5.3-18.5,7.9-22.9c-8.7-1.8-13.6,3.1-19.9,12.5c0.5-4,1.4-8,1.2-12H688"/>
		<path id="Fill-21" class="st2" d="M516.9,227.9c-2.6,24.4-7.2,49.2-10.8,73.7l-0.9,5.3h20.8c7.4-48.3,9.2-57.7,20.9-56.5
			c1.9-9.9,5.3-18.5,7.9-22.9c-8.7-1.8-13.6,3.1-19.9,12.5c0.5-4,1.4-8,1.2-12H516.9"/>
		<path id="Fill-22" class="st2" d="M788.5,300.7c0-3.4,2.8-6.2,6.2-6.2c3.4,0,6.2,2.8,6.2,6.2c0,3.4-2.8,6.2-6.2,6.2
			C791.2,306.9,788.5,304.1,788.5,300.7z M794.7,305.4c2.6,0,4.7-2.1,4.7-4.7c0-2.6-2.1-4.7-4.7-4.7c-2.6,0-4.7,2.1-4.7,4.7
			C790,303.3,792.1,305.4,794.7,305.4z M793.8,303.4h-1.3V298h2.3c0.5,0,1,0,1.4,0.3c0.4,0.3,0.7,0.8,0.7,1.4c0,0.6-0.4,1.2-0.9,1.4
			l1,2.4h-1.4l-0.8-2.1h-0.9V303.4z M793.8,300.3h0.7c0.3,0,0.5,0,0.8-0.1c0.2-0.1,0.3-0.4,0.3-0.6c0-0.2-0.1-0.4-0.3-0.6
			c-0.2-0.1-0.6-0.1-0.8-0.1h-0.7V300.3z"/>
	</g>
</g>
</svg>
